<?xml version="1.0" encoding="iso-8859-1"?>
<!-- Generator: Adobe Illustrator 19.0.0, SVG Export Plug-In . SVG Version: 6.00 Build 0)  -->
<svg version="1.1" id="Capa_1" xmlns="http://www.w3.org/2000/svg" xmlns:xlink="http://www.w3.org/1999/xlink" x="0px" y="0px"
	 viewBox="0 0 512 512" style="enable-background:new 0 0 512 512;" xml:space="preserve">
<polygon style="fill:#168DE2;" points="300.138,132.414 300.138,238.345 256,238.345 256,105.931 "/>
<path style="fill:#62BEFF;" d="M423.724,256v256H88.276V256H0L14.301,99.046c2.057-22.899,16.693-42.743,37.959-51.465l85.628-35.31
	l73.975,120.143L256,105.931v132.414h44.138V132.414l79.448-114.759l2.207-5.12l79.095,34.604
	c20.639,9.031,34.719,28.584,36.723,51.023L512,256H423.724z"/>
<polygon style="fill:#00448F;" points="256,105.931 211.862,132.414 137.887,12.27 167.724,0 "/>
<polygon style="fill:#62BEFF;" points="353.103,0 256,105.931 167.724,0 229.517,0 247.172,0 264.828,0 282.483,0 "/>
<rect x="423.724" y="256" style="fill:#FFD374;" width="88.276" height="35.31"/>
<polygon style="fill:#00448F;" points="381.793,12.535 379.586,17.655 300.138,132.414 256,105.931 353.103,0 "/>
<rect y="256" style="fill:#FFD374;" width="88.276" height="35.31"/>
<g>
	<rect x="414.897" y="141.241" style="fill:#168DE2;" width="17.655" height="150.069"/>
	<rect x="79.448" y="150.069" style="fill:#168DE2;" width="17.655" height="141.241"/>
</g>
<g>
	<rect x="282.483" y="194.207" style="fill:#00448F;" width="17.655" height="17.655"/>
	<rect x="282.483" y="158.897" style="fill:#00448F;" width="17.655" height="17.655"/>
</g>
<g>
</g>
<g>
</g>
<g>
</g>
<g>
</g>
<g>
</g>
<g>
</g>
<g>
</g>
<g>
</g>
<g>
</g>
<g>
</g>
<g>
</g>
<g>
</g>
<g>
</g>
<g>
</g>
<g>
</g>
</svg>
