<svg height="512" viewBox="0 0 56 60" width="512" xmlns="http://www.w3.org/2000/svg"><g id="079---Skirt" fill="none"><g id="Icons" transform="translate(1 1)"><path id="Shape" d="m43 1v5h-32v-5c0-.55228475.4477153-1 1-1h30c.5522847 0 1 .44771525 1 1z" fill="#283593"/><path id="Shape" d="m40 1v5h-29v-5c0-.55228475.4477153-1 1-1h27c.5522847 0 1 .44771525 1 1z" fill="#3f51b5"/><path id="Shape" d="m54 51s-8 6.22-24 6.93c-2.12.1-3.65.07-4.56 0-10.72.07-21.39-3.78-25.44-6.93.45628469-10.8822215 2.4079247-21.6498905 5.8-32 1.39812754-4.4600101 3.13656814-8.8061116 5.2-13h32c2.3236149 4.8413809 4.2661697 9.8565825 5.81 15 3.014403 9.7348431 4.7588336 19.818257 5.19 30z" fill="#0377bc"/><path id="Shape" d="m51 52s-8 5.22-24 5.93c-10.74.42-22.46-3.4-27-6.93.45628469-10.8822215 2.4079247-21.6498905 5.8-32 1.39812754-4.4600101 3.13656814-8.8061116 5.2-13h29c2.3236149 4.8413809 4.2661697 9.8565825 5.81 15 3.0059591 10.0787962 4.7492861 20.4917321 5.19 31z" fill="#02a9f4"/></g><g id="Layer_9" fill="#000" transform="translate(-1)"><path id="Shape" d="m57 52c-.65-17-5.71-34.66-11-45.2v-4.8c0-1.1045695-.8954305-2-2-2h-30c-1.1045695 0-2 .8954305-2 2v4.76c-2.15202676 4.5302761-3.97669833 9.2089211-5.46 14-3.21983525 10.1225737-5.08274804 20.6275188-5.54 31.24-.01199971.3234819.13332503.6327628.39.83.37.25 9.48 7.17 27.61 7.17h2 .1c16.72-.51 25.15-6.88 25.51-7.16.2596363-.1993012.4053043-.5130478.39-.84zm-13-46h-4v-4h4zm-12-4h6v4h-6zm-2 4h-10v-4h10zm-16-4h4v4h-4zm-11 49.5c.48705689-10.0151327 2.24445855-19.9278189 5.23-29.5h3.77c2.7614237 0 5-2.2385763 5-5v-5c0-.5522847-.4477153-1-1-1s-1 .4477153-1 1v5c0 1.6568542-1.3431458 3-3 3h-3.13c1.3151813-4.1010131 2.9020261-8.109884 4.75-12h4.38c0 .55228475.4477153 1 1 1s1-.44771525 1-1h10v50h-1c-15.31 0-24-5.21-26-6.5zm29 6.43v-49.93h6c0 .55228475.4477153 1 1 1s1-.44771525 1-1h4.38c1.848344 3.8911829 3.4384506 7.8998552 4.76 12h-3.14c-1.6568542 0-3-1.3431458-3-3v-5c0-.5522847-.4477153-1-1-1s-1 .4477153-1 1v5c0 2.7614237 2.2385763 5 5 5h3.78c2.9836232 9.5722636 4.7376966 19.48513 5.22 29.5-1.81 1.2-9.5 5.81-23 6.43z"/><circle id="Oval" cx="27" cy="12" r="1"/><circle id="Oval" cx="27" cy="20" r="1"/><circle id="Oval" cx="27" cy="28" r="1"/><circle id="Oval" cx="27" cy="36" r="1"/><circle id="Oval" cx="27" cy="44" r="1"/><circle id="Oval" cx="27" cy="52" r="1"/></g></g></svg>