<?xml version="1.0" encoding="iso-8859-1"?>
<!-- Generator: Adobe Illustrator 19.0.0, SVG Export Plug-In . SVG Version: 6.00 Build 0)  -->
<svg version="1.1" id="Capa_1" xmlns="http://www.w3.org/2000/svg" xmlns:xlink="http://www.w3.org/1999/xlink" x="0px" y="0px"
	 viewBox="0 0 511.999 511.999" style="enable-background:new 0 0 511.999 511.999;" xml:space="preserve">
<g>
	<path style="fill:#F2F1EB;" d="M117.726,298.501l-49.002,111.41L9.989,396.328v-54.681c0-123.284,66.399-237.013,173.759-297.616
		l0,0h144.504l0,0c107.36,60.603,173.759,174.333,173.759,297.616v54.681l-58.734,13.583l-49.003-111.41H117.726z"/>
	<polygon style="fill:#F2F1EB;" points="393.695,229.516 393.695,453.276 117.726,452.916 117.726,229.156 	"/>
</g>
<path style="fill:#BAB8B5;" d="M371.767,430.894H139.654c-12.11,0-21.928,9.818-21.928,21.928l0,0
	c0,12.11,9.818,21.928,21.928,21.928h232.113c12.11,0,21.928-9.818,21.928-21.928l0,0
	C393.695,440.712,383.878,430.894,371.767,430.894z"/>
<g>
	<polygon style="fill:#5DBAE8;" points="13.199,397.167 13.199,432.966 56.936,437.793 56.936,407.049 	"/>
	<polygon style="fill:#5DBAE8;" points="498.801,397.167 498.801,432.966 455.064,437.793 455.064,407.049 	"/>
</g>
<polygon style="fill:#F25353;" points="117.726,348.774 152.23,307.782 186.687,348.785 221.222,307.782 221.222,307.782 
	255.647,348.795 290.214,307.782 324.671,348.785 324.671,348.795 359.238,307.782 393.695,348.785 393.695,283.862 359.238,242.86 
	324.671,283.873 324.671,283.862 290.214,242.86 255.647,283.873 221.222,242.86 221.222,242.86 186.687,283.862 152.23,242.86 
	117.726,283.852 "/>
<g>
	<path style="fill:#5DBAE8;" d="M117.726,452.823c0-12.11,9.818-21.928,21.928-21.928h232.113c12.11,0,21.928,9.818,21.928,21.928
		v-38.05c0-12.11-9.818-21.928-21.928-21.928H139.654c-12.11,0-21.928,9.818-21.928,21.928
		C117.726,414.773,117.726,452.823,117.726,452.823z"/>
	<path style="fill:#5DBAE8;" d="M311.68,37.247H199.601c-12.11,0-21.928,9.818-21.928,21.928l0,0
		c0,12.11,9.818,21.928,21.928,21.928H311.68c12.11,0,21.928-9.818,21.928-21.928l0,0C333.608,47.065,323.79,37.247,311.68,37.247z"
		/>
</g>
<path d="M333.163,35.332c-0.23-0.13-0.465-0.241-0.701-0.351c-5.589-4.808-12.849-7.723-20.782-7.723H199.601
	c-8.469,0-16.172,3.322-21.892,8.723C68.063,98.415,0,215.409,0,341.646v54.681c0,2.863,1.219,5.489,3.21,7.332v29.307
	c0,5.093,3.831,9.369,8.893,9.928l43.736,4.828c0.366,0.041,0.731,0.061,1.096,0.061c2.446,0,4.824-0.899,6.664-2.548
	c2.116-1.895,3.324-4.601,3.324-7.441v-18.073c0.602,0.11,1.206,0.18,1.803,0.18c3.889,0,7.517-2.281,9.139-5.968l29.871-67.913
	v106.897c0,0.032,0.004,0.062,0.005,0.094c0.101,17.513,14.376,31.731,31.912,31.731h232.113c17.293,0,31.409-13.828,31.894-31.007
	c0.007-0.153,0.023-0.303,0.023-0.457V344.704l30.45,69.229c1.621,3.687,5.25,5.968,9.139,5.968c0.597,0,1.201-0.07,1.803-0.18
	v18.073c0,2.84,1.209,5.546,3.324,7.441c1.841,1.648,4.218,2.548,6.664,2.548c0.364,0,0.729-0.02,1.096-0.061l43.736-4.828
	c5.062-0.559,8.893-4.836,8.893-9.928v-29.307c1.992-1.843,3.21-4.469,3.21-7.332v-54.681
	C512,214.974,443.474,97.602,333.163,35.332z M311.679,47.235c6.584,0,11.939,5.356,11.939,11.939s-5.356,11.939-11.939,11.939
	H199.601c-6.584,0-11.939-5.356-11.939-11.939s5.356-11.939,11.939-11.939H311.679z M23.188,424.019v-14.387l23.759,5.495v11.515
	L23.188,424.019z M127.714,414.772c0-6.584,5.356-11.939,11.939-11.939h18.167v18.074h-18.167c-4.22,0-8.249,0.831-11.939,2.325
	C127.714,423.232,127.714,414.772,127.714,414.772z M177.799,402.833h23.973v18.074h-23.973V402.833z M221.749,402.833h23.973
	v18.074h-23.973V402.833z M265.699,402.833h23.973v18.074h-23.973V402.833z M309.649,402.833h23.973v18.074h-23.973V402.833z
	 M353.599,402.833h18.167c6.584,0,11.939,5.356,11.939,11.939v8.459c-3.691-1.494-7.719-2.325-11.939-2.325h-18.167V402.833z
	 M371.767,382.855H139.655c-4.22,0-8.249,0.831-11.939,2.325v-32.764l24.508-29.117l26.818,31.91c1.896,2.257,4.693,3.56,7.64,3.562
	c0.002,0,0.004,0,0.006,0c2.946,0,5.742-1.301,7.639-3.554l26.883-31.917l26.788,31.914c1.895,2.259,4.692,3.564,7.64,3.567
	c0.003,0,0.006,0,0.01,0c2.945,0,5.739-1.3,7.637-3.552l26.918-31.938l26.587,31.637c1.126,1.446,2.652,2.588,4.454,3.246
	c1.12,0.409,2.277,0.606,3.425,0.606c2.89-0.001,5.705-1.257,7.639-3.553l26.918-31.938l24.48,29.129v32.757
	C380.016,383.686,375.988,382.855,371.767,382.855z M383.707,321.374l-16.823-20.017c-1.896-2.256-4.692-3.56-7.639-3.562
	c-0.002,0-0.005,0-0.007,0c-2.945,0-5.74,1.3-7.637,3.552l-26.913,31.933l-26.826-31.922c-1.896-2.256-4.692-3.56-7.639-3.562
	c-0.002,0-0.004,0-0.007,0c-2.945,0-5.74,1.3-7.637,3.552l-26.913,31.933l-26.791-31.917c-1.896-2.259-4.693-3.564-7.641-3.567
	c-0.003,0-0.006,0-0.009,0c-2.946,0-5.742,1.301-7.639,3.554L186.7,333.272l-26.821-31.913c-1.896-2.257-4.694-3.561-7.642-3.562
	c-0.002,0-0.002,0-0.004,0c-2.947,0-5.744,1.302-7.641,3.557L127.718,321.4v-22.728c0-0.019,0-0.038,0-0.057V287.5l24.508-29.117
	l26.818,31.91c1.896,2.257,4.693,3.56,7.64,3.562c0.002,0,0.004,0,0.006,0c2.946,0,5.742-1.301,7.639-3.554l26.883-31.917
	L248,290.298c1.895,2.259,4.692,3.564,7.64,3.567c0.003,0,0.006,0,0.01,0c2.945,0,5.74-1.3,7.637-3.552l26.918-31.938l26.587,31.637
	c1.126,1.446,2.652,2.588,4.454,3.246c1.12,0.409,2.277,0.606,3.425,0.606c2.89-0.001,5.705-1.257,7.639-3.553l26.917-31.938
	l24.48,29.129v33.871H383.707z M371.767,464.763H139.655c-6.584,0-11.939-5.356-11.939-11.939c0-6.584,5.356-11.939,11.939-11.939
	h232.113c6.584,0,11.939,5.356,11.939,11.939C383.707,459.407,378.35,464.763,371.767,464.763z M403.685,295.087v-65.571
	c0-5.516-4.473-9.989-9.989-9.989s-9.989,4.473-9.989,9.989v26.936l-16.823-20.017c-1.896-2.256-4.692-3.56-7.639-3.562
	c-0.002,0-0.005,0-0.007,0c-2.945,0-5.74,1.3-7.637,3.552l-26.913,31.933l-26.826-31.922c-1.896-2.256-4.692-3.56-7.639-3.562
	c-0.002,0-0.004,0-0.007,0c-2.945,0-5.74,1.3-7.637,3.552l-26.913,31.933l-26.791-31.917c-1.896-2.259-4.693-3.564-7.641-3.567
	c-0.003,0-0.006,0-0.009,0c-2.946,0-5.742,1.301-7.639,3.554L186.7,268.35l-26.821-31.913c-1.896-2.257-4.694-3.561-7.642-3.562
	c-0.002,0-0.002,0-0.004,0c-2.947,0-5.744,1.302-7.641,3.557l-16.873,20.045v-27.318c0-5.516-4.473-9.989-9.989-9.989
	s-9.989,4.473-9.989,9.989v67.245l-44.83,101.911l-42.933-9.93v-46.739c0-111.464,56.262-215.287,148.292-276.405
	c2.842,14.707,15.807,25.851,31.332,25.851h108.827c24.952,15.927,47.493,35.253,67.016,57.496c1.975,2.249,4.736,3.399,7.512,3.399
	c2.339,0,4.689-0.817,6.586-2.481c4.145-3.64,4.558-9.951,0.918-14.096c-17.211-19.608-36.625-37.089-57.875-52.146
	c5.39-4.684,9.196-11.138,10.505-18.452c92.412,61.06,148.935,165.111,148.935,276.834v46.739l-42.933,9.929L403.685,295.087z
	 M465.053,426.642v-11.515l23.759-5.495v14.387L465.053,426.642z"/>
<path d="M410.926,161.185c-3.252-4.456-9.492-5.417-13.948-2.165c-4.456,3.253-5.421,9.515-2.168,13.97
	c0.007,0.011,0.063,0.09,0.071,0.1c1.944,2.706,4.982,4.138,8.071,4.138c2.019,0,4.058-0.612,5.829-1.88
	c4.48-3.206,5.493-9.469,2.294-13.955L410.926,161.185z"/>
<path d="M119.605,145.926c-4.387-3.352-10.654-2.511-14.002,1.871c-22.863,29.918-40.13,63.205-51.321,98.938
	c-1.648,5.265,1.283,10.87,6.547,12.518c0.994,0.312,2,0.459,2.989,0.459c4.25,0,8.192-2.735,9.529-7.006
	c10.493-33.503,26.687-64.719,48.129-92.779C124.826,155.544,123.988,149.275,119.605,145.926z"/>
<path d="M134.707,114.655l-0.283,0.281c-3.922,3.881-3.954,10.205-0.073,14.126c1.954,1.975,4.526,2.963,7.099,2.963
	c2.539,0,5.079-0.962,7.026-2.89l0.283-0.281c3.922-3.881,3.954-10.205,0.073-14.126
	C144.952,110.806,138.628,110.774,134.707,114.655z"/>
<g>
</g>
<g>
</g>
<g>
</g>
<g>
</g>
<g>
</g>
<g>
</g>
<g>
</g>
<g>
</g>
<g>
</g>
<g>
</g>
<g>
</g>
<g>
</g>
<g>
</g>
<g>
</g>
<g>
</g>
</svg>
