<svg enable-background="new 0 0 256 256" height="512" viewBox="0 0 256 256" width="512" xmlns="http://www.w3.org/2000/svg"><g id="Layer_85"><g><g><g><path d="m197.506 65.961-70.734 70.734c-2.062 2.062-5.405 2.062-7.467 0-2.062-2.062-2.062-5.405 0-7.467l70.734-70.734-4.185-10.457c-42.178-31.471-102.163-28.056-140.472 10.254-42.064 42.064-42.064 110.263 0 152.327s110.263 42.064 152.327 0c38.309-38.309 41.725-98.294 10.254-140.473z" fill="#fc657e"/></g></g><g><g><path d="m214.982 33.551-6.951-17.371c-.995-2.487-4.209-3.146-6.103-1.252l-19.201 19.201c-1.056 1.056-1.38 2.639-.826 4.025l8.139 20.34z" fill="#f5c84c"/></g></g><g><g><path d="m222.449 41.018-24.942 24.942 20.339 8.139c1.386.555 2.969.23 4.025-.826l19.201-19.201c1.894-1.894 1.235-5.108-1.252-6.103z" fill="#f5c84c"/></g></g><g><g><path d="m126.773 136.695c-2.062 2.062-5.405 2.062-7.467 0s-2.062-5.405 0-7.467l59.612-59.612c-33.966-30.091-86.094-28.899-118.601 3.609-33.762 33.762-33.762 88.697 0 122.459s88.697 33.762 122.459 0c32.507-32.507 33.7-84.635 3.609-118.601z" fill="#edf4fc"/></g></g><g><g><path d="m126.773 136.695c-2.062 2.062-5.405 2.062-7.467 0s-2.062-5.405 0-7.467l44.638-44.638c-25.695-21.877-64.425-20.699-88.694 3.57-25.527 25.527-25.527 67.064 0 92.591s67.064 25.527 92.591 0c24.269-24.269 25.447-62.999 3.57-88.694z" fill="#fc657e"/></g></g><g><g><path d="m126.773 136.695c-2.062 2.062-5.405 2.062-7.467 0s-2.062-5.405 0-7.467l29.638-29.638c-17.391-13.685-42.731-12.525-58.76 3.504-17.293 17.293-17.293 45.43 0 62.723s45.43 17.293 62.723 0c16.029-16.029 17.189-41.369 3.504-58.76z" fill="#edf4fc"/></g></g><g><g><path d="m141.273 122.194-14.501 14.501c-2.062 2.063-5.405 2.063-7.467 0-2.062-2.062-2.062-5.405 0-7.467l14.501-14.5c-8.96-5.569-20.915-4.474-28.688 3.3-9.058 9.058-9.058 23.797 0 32.855s23.797 9.058 32.855 0c7.774-7.775 8.869-19.729 3.3-28.689z" fill="#fc657e"/></g></g><g><g><g><path d="m225.337 38.13-98.565 98.565c-2.062 2.062-5.405 2.062-7.467 0s-2.062-5.405 0-7.467l98.565-98.565c2.062-2.062 5.405-2.062 7.467 0s2.062 5.405 0 7.467z" fill="#5290db"/></g></g></g><g><g><path d="m217.87 30.663-32.855 32.855 7.467 7.467 32.855-32.855c2.062-2.062 2.062-5.405 0-7.467s-5.405-2.062-7.467 0z" fill="#edf4fc"/></g></g><g><g><path d="m121.546 244.614c-28.223 0-56.446-10.743-77.932-32.229-42.971-42.972-42.971-112.892 0-155.862 18.827-18.828 43.809-30.198 70.341-32.019 26.272-1.8 52.313 5.825 73.323 21.475 1.107.825 1.337 2.391.512 3.498s-2.392 1.336-3.498.512c-20.054-14.937-44.907-22.211-69.995-20.496-25.327 1.737-49.174 12.592-67.148 30.566-41.021 41.021-41.021 107.77 0 148.792 41.023 41.021 107.771 41.021 148.792 0 17.966-17.966 28.819-41.802 30.563-67.116 1.727-25.07-5.538-49.92-20.455-69.974-.824-1.107-.594-2.674.514-3.498s2.675-.594 3.498.514c15.629 21.01 23.24 47.042 21.432 73.302-1.827 26.52-13.197 51.488-32.017 70.308-21.485 21.484-49.707 32.227-77.93 32.227z"/></g></g><g><g><path d="m189.905 60.658c-.992 0-1.931-.595-2.322-1.572l-8.004-20.003c-.928-2.317-.386-4.956 1.38-6.722l19.201-19.201c1.485-1.486 3.601-2.125 5.66-1.697 2.058.422 3.752 1.839 4.532 3.789l6.857 17.139c.513 1.282-.11 2.737-1.393 3.25-1.286.513-2.737-.111-3.25-1.393l-6.857-17.139c-.214-.536-.653-.699-.896-.749-.242-.051-.712-.073-1.119.336l-19.201 19.2c-.349.35-.456.871-.272 1.329l8.004 20.003c.513 1.282-.11 2.737-1.393 3.25-.304.123-.618.18-.927.18z"/></g></g><g><g><path d="m219.233 76.868c-.778 0-1.564-.146-2.316-.447l-20.06-8.027c-1.282-.514-1.905-1.968-1.393-3.25.514-1.281 1.967-1.907 3.25-1.393l20.06 8.027c.457.184.979.076 1.329-.272l19.201-19.201c.407-.408.385-.876.335-1.119-.05-.242-.213-.682-.749-.896l-17.145-6.86c-1.282-.513-1.905-1.968-1.393-3.25.514-1.281 1.966-1.907 3.25-1.393l17.145 6.86c1.95.78 3.367 2.475 3.789 4.532.423 2.059-.212 4.174-1.696 5.66l-19.202 19.201c-1.192 1.193-2.783 1.828-4.405 1.828z"/></g></g><g><g><path d="m255.831 83.882c-4.498-.838-8.043-4.31-8.898-8.716-.043-.221-.352-.221-.395 0-.855 4.406-4.4 7.879-8.898 8.716-.226.042-.226.345 0 .387 4.498.838 8.043 4.31 8.898 8.717.043.221.352.221.395 0 .855-4.406 4.4-7.879 8.898-8.717.225-.042.225-.344 0-.387z" fill="#f5c84c"/></g></g><g><g><path d="m32.752 52.83c-3.965-.738-7.089-3.799-7.843-7.683-.038-.195-.31-.195-.348 0-.754 3.884-3.878 6.945-7.843 7.683-.199.037-.199.304 0 .341 3.965.738 7.089 3.799 7.843 7.683.038.195.31.195.348 0 .754-3.884 3.878-6.945 7.843-7.683.2-.038.2-.304 0-.341z" fill="#fc657e"/></g></g><g><g><path d="m9.442 205.487h2.33v-2.33c0-1.744 1.413-3.157 3.157-3.157s3.157 1.413 3.157 3.157v2.33h2.329c1.744 0 3.157 1.413 3.157 3.157s-1.413 3.157-3.157 3.157h-2.329v2.33c0 1.744-1.413 3.157-3.157 3.157s-3.157-1.413-3.157-3.157v-2.33h-2.33c-1.744 0-3.157-1.413-3.157-3.157s1.413-3.157 3.157-3.157z" fill="#70d6f9"/></g></g><g><g><circle cx="242.721" cy="113.623" fill="#87d147" r="3.377"/></g></g><g><g><circle cx="3.377" cy="178.623" fill="#f5c84c" r="3.377"/></g></g><g><g><circle cx="45.377" cy="33.623" fill="#70d6f9" r="3.377"/></g></g><g><g><path d="m121.546 223.506c-23.823 0-46.196-9.253-62.997-26.055-16.802-16.801-26.055-39.174-26.055-62.997s9.253-46.196 26.055-62.997c32.905-32.906 86.201-34.802 121.333-4.32 1.043.905 1.154 2.484.25 3.527-.906 1.042-2.484 1.153-3.527.25-33.156-28.772-83.46-26.98-114.521 4.078-15.856 15.857-24.59 36.975-24.59 59.462 0 22.488 8.733 43.605 24.59 59.462s36.974 24.59 59.462 24.59c22.487 0 43.604-8.733 59.462-24.59 31.145-31.145 32.869-81.525 3.926-114.697-.907-1.04-.8-2.619.24-3.527 1.041-.907 2.62-.8 3.527.24 30.665 35.146 28.839 88.523-4.158 121.52-16.801 16.801-39.174 26.054-62.997 26.054z"/></g></g><g><g><path d="m121.546 202.396c-18.176 0-35.245-7.06-48.063-19.878s-19.878-29.888-19.878-48.063 7.06-35.245 19.878-48.063c12.034-12.035 28.045-19.068 45.081-19.805 16.929-.737 33.384 4.791 46.344 15.546 1.063.882 1.209 2.458.327 3.521-.883 1.063-2.459 1.208-3.521.327-12.003-9.962-27.237-15.072-42.935-14.398-15.783.682-30.614 7.197-41.762 18.345-11.874 11.874-18.413 27.688-18.413 44.527 0 16.841 6.539 32.654 18.413 44.528s27.688 18.413 44.528 18.413 32.653-6.539 44.527-18.413c11.157-11.157 17.673-26.002 18.346-41.798.669-15.698-4.463-30.954-14.449-42.958-.883-1.062-.738-2.638.323-3.521 1.061-.884 2.638-.739 3.521.323 10.782 12.959 16.323 29.427 15.601 46.368-.727 17.051-7.761 33.075-19.806 45.12-12.817 12.819-29.886 19.879-48.062 19.879z"/></g></g><g><g><path d="m121.546 181.286c-12.527 0-24.293-4.866-33.129-13.703-8.837-8.836-13.703-20.602-13.703-33.129s4.866-24.293 13.703-33.129c16.587-16.586 43.104-18.309 61.682-4.005 1.094.842 1.298 2.411.455 3.506-.842 1.094-2.41 1.299-3.506.455-16.595-12.775-40.278-11.236-55.096 3.579-7.892 7.892-12.238 18.401-12.238 29.594s4.347 21.702 12.238 29.594 18.401 12.238 29.594 12.238 21.702-4.347 29.594-12.238c14.794-14.794 16.349-38.459 3.615-55.047-.841-1.096-.634-2.665.461-3.506 1.096-.84 2.665-.636 3.506.461 14.255 18.571 12.516 45.065-4.047 61.627-8.836 8.837-20.602 13.703-33.129 13.703z"/></g></g><g><g><path d="m121.546 160.174c-6.591.001-13.179-2.507-18.195-7.524-4.854-4.853-7.526-11.314-7.526-18.195 0-6.88 2.673-13.342 7.526-18.195 8.392-8.395 21.351-9.965 31.513-3.816 1.182.714 1.56 2.251.845 3.433s-2.254 1.56-3.433.845c-8.188-4.95-18.628-3.688-25.39 3.074-3.909 3.909-6.062 9.115-6.062 14.66s2.152 10.751 6.062 14.66c8.084 8.082 21.235 8.084 29.319 0 6.724-6.723 8.013-17.122 3.135-25.289-.708-1.186-.32-2.721.864-3.429 1.188-.705 2.721-.32 3.429.864 6.054 10.138 4.453 23.045-3.893 31.389-5.015 5.014-11.606 7.523-18.194 7.523z"/></g></g><g><g><g><path d="m123.039 140.737c-1.992 0-3.984-.759-5.501-2.275-1.47-1.469-2.279-3.423-2.279-5.501s.81-4.031 2.279-5.501l98.564-98.564c1.47-1.47 3.423-2.279 5.501-2.279s4.032.81 5.502 2.279c1.469 1.469 2.278 3.423 2.278 5.501s-.81 4.031-2.279 5.501l-98.564 98.564c-1.517 1.517-3.509 2.275-5.501 2.275zm98.565-109.121c-.742 0-1.44.289-1.966.814l-98.564 98.564c-.525.525-.814 1.224-.814 1.966s.289 1.44.814 1.965c1.084 1.086 2.848 1.085 3.932.001l98.564-98.564c.525-.525.814-1.224.814-1.966s-.289-1.44-.814-1.965c-.526-.526-1.224-.815-1.966-.815z"/></g></g></g><g><g><path d="m192.06 73.063c-.64 0-1.279-.244-1.768-.732l-6.669-6.669c-.977-.977-.977-2.559 0-3.535s2.559-.977 3.535 0l6.669 6.669c.977.977.977 2.559 0 3.535-.488.487-1.128.732-1.767.732z"/></g></g></g></g></svg>