<?xml version="1.0" encoding="iso-8859-1"?>
<!-- Generator: Adobe Illustrator 19.0.0, SVG Export Plug-In . SVG Version: 6.00 Build 0)  -->
<svg version="1.1" id="Capa_1" xmlns="http://www.w3.org/2000/svg" xmlns:xlink="http://www.w3.org/1999/xlink" x="0px" y="0px"
	 viewBox="0 0 448 448" style="enable-background:new 0 0 448 448;" xml:space="preserve">
<path style="fill:#2196F3;" d="M432,320c-46.464,0-90.72-10.112-131.52-30.048c-3.84-1.92-8.256-2.144-12.256-0.736
	c-4.032,1.408-7.328,4.352-9.184,8.16l-25.152,52.064C188.8,313.12,134.912,259.264,98.624,194.176l52.032-25.216
	c3.84-1.856,6.752-5.152,8.16-9.184c1.376-4,1.12-8.416-0.768-12.256C138.112,106.72,128,62.464,128,16c0-8.832-7.168-16-16-16H16
	C7.168,0,0,7.168,0,16c0,238.208,193.792,432,432,432c8.832,0,16-7.168,16-16v-96C448,327.168,440.832,320,432,320z"/>
<g>
	<circle style="fill:#4CAF50;" cx="224" cy="64" r="32"/>
	<circle style="fill:#4CAF50;" cx="320" cy="64" r="32"/>
	<circle style="fill:#4CAF50;" cx="416" cy="64" r="32"/>
</g>
<g>
</g>
<g>
</g>
<g>
</g>
<g>
</g>
<g>
</g>
<g>
</g>
<g>
</g>
<g>
</g>
<g>
</g>
<g>
</g>
<g>
</g>
<g>
</g>
<g>
</g>
<g>
</g>
<g>
</g>
</svg>
