<svg id="Layer_1" enable-background="new 0 0 512.018 512.018" height="512" viewBox="0 0 512.018 512.018" width="512" xmlns="http://www.w3.org/2000/svg"><g><path d="m312.902 70.052h-113.786l-38.823 382.224 95.716 59.742 95.716-59.742z" fill="#48568b"/><path d="m312.902 70.052h-56.893v441.966l95.716-59.742z" fill="#2a386d"/><path d="m170.931 0 25.138 100.052h119.904l25.114-100.052z" fill="#2a386d"/><g fill="#62e0ff"><path d="m341.352 350.146-181.01 101.642-.049.488 28.629 17.87 155.736-87.45z"/><path d="m333.359 271.452-164.057 92.122-3.706 36.488 171.069-96.06z"/><path d="m325.366 192.758-147.104 82.603-3.706 36.487 154.116-86.54z"/><path d="m317.372 114.064-130.15 73.083-3.706 36.487 137.163-77.02z"/></g><path d="m341.087 0h-85.078v100.052h59.964z" fill="#152452"/><path d="m341.352 350.146-85.343 47.922v34.406l88.649-49.778z" fill="#00b1ff"/><path d="m333.359 271.452-77.35 43.434v34.406l80.656-45.29z" fill="#00b1ff"/><path d="m325.366 192.758-69.357 38.946v34.406l72.663-40.802z" fill="#00b1ff"/><path d="m317.372 114.064-61.363 34.457v34.406l64.67-36.313z" fill="#00b1ff"/></g></svg>