<svg id="Layer_1" enable-background="new 0 0 256 256" height="512" viewBox="0 0 256 256" width="512" xmlns="http://www.w3.org/2000/svg"><g><g><g><path d="m47.753 51.419c-.974 11.564-13.031 13.389-13.031 13.389 10.352.487 12.932 14.059 12.932 14.059.221-9.677 13.328-14.202 13.328-14.202-9.819-.587-13.229-13.246-13.229-13.246z" fill="#d4d853"/></g></g><g><g><path d="m61.072 63.168c-8.61-.515-11.84-12.024-11.871-12.141-.192-.702-.849-1.169-1.584-1.101-.725.066-1.298.642-1.359 1.367-.859 10.215-11.319 11.963-11.761 12.032-.763.115-1.313.79-1.274 1.561.04.77.657 1.384 1.428 1.421 9.034.425 11.506 12.718 11.529 12.842.138.711.76 1.217 1.473 1.217.042 0 .084-.001.126-.005.765-.064 1.357-.693 1.375-1.459.193-8.508 12.198-12.777 12.319-12.819.675-.235 1.092-.914.994-1.623-.097-.708-.682-1.249-1.395-1.292zm-13.574 10.347c-1.357-3.13-3.711-6.908-7.592-8.878 2.933-1.404 6.413-3.914 8.206-8.274 1.552 3.071 4.202 6.881 8.34 8.724-3.009 1.641-6.926 4.406-8.954 8.428z" fill="#3a312a"/></g></g><g><g><path d="m26.043 68.4c-.689 8.179-9.217 9.47-9.217 9.47 7.322.344 9.147 9.944 9.147 9.944.156-6.844 9.427-10.045 9.427-10.045-6.945-.415-9.357-9.369-9.357-9.369z" fill="#d4d853"/></g></g><g><g><path d="m35.49 76.271c-5.769-.345-7.976-8.186-7.999-8.265-.189-.702-.862-1.164-1.581-1.102-.726.065-1.3.642-1.362 1.368-.579 6.871-7.651 8.067-7.947 8.114-.763.115-1.313.79-1.274 1.56.04.771.657 1.385 1.428 1.421 6.039.284 7.729 8.644 7.744 8.726.136.712.759 1.22 1.473 1.22.041 0 .083-.001.125-.005.765-.063 1.358-.694 1.376-1.461.13-5.709 8.336-8.634 8.416-8.662.677-.234 1.094-.913.997-1.622-.098-.707-.683-1.249-1.396-1.292zm-9.59 6.797c-.924-1.886-2.341-3.948-4.45-5.281 1.857-1.042 3.7-2.631 4.874-4.918 1.057 1.874 2.656 3.956 4.944 5.225-1.851 1.101-3.991 2.741-5.368 4.974z" fill="#3a312a"/></g></g><g><g><path d="m26.043 41.742c-.689 8.179-9.217 9.471-9.217 9.471 7.322.345 9.147 9.945 9.147 9.945.156-6.845 9.427-10.046 9.427-10.046-6.945-.416-9.357-9.37-9.357-9.37z" fill="#d4d853"/></g></g><g><g><path d="m35.49 49.614c-5.748-.344-7.961-8.128-7.998-8.264-.19-.703-.861-1.167-1.582-1.103-.726.065-1.3.642-1.362 1.368-.579 6.871-7.651 8.067-7.947 8.114-.763.115-1.313.79-1.274 1.561.04.77.657 1.384 1.428 1.421 6.039.284 7.729 8.644 7.744 8.726.136.712.759 1.22 1.473 1.22.041 0 .083-.001.125-.005.765-.063 1.358-.694 1.376-1.461.13-5.709 8.335-8.633 8.416-8.662.677-.234 1.094-.913.997-1.622-.098-.708-.683-1.25-1.396-1.293zm-9.59 6.797c-.924-1.886-2.341-3.948-4.45-5.281 1.857-1.042 3.7-2.631 4.874-4.918 1.057 1.874 2.656 3.956 4.944 5.226-1.851 1.1-3.991 2.74-5.368 4.973z" fill="#3a312a"/></g></g><g><g><path d="m233.394 40.742h-67.549l-1.112 39.032-.414 14.559-3.386 118.925h23.486l15.2-137.408 15.201 137.408h23.486z" fill="#8ac5dc"/></g></g><g><g><path d="m235.893 41.699c-.022-.812-.688-1.458-1.499-1.458h-67.549c-.812 0-1.477.646-1.499 1.458l-1.111 39.033c-.024.828.628 1.518 1.456 1.542.819.026 1.519-.628 1.542-1.457l1.07-37.575h64.633l4.827 169.517h-20.601l-15.051-136.074c-.084-.76-.726-1.335-1.491-1.335s-1.407.575-1.491 1.335l-15.052 136.073h-20.6l3.342-117.383c.024-.828-.628-1.518-1.456-1.542-.827-.036-1.52.628-1.542 1.457l-3.386 118.925c-.012.405.141.797.424 1.088.282.291.67.455 1.075.455h23.486c.765 0 1.407-.575 1.491-1.335l13.709-123.93 13.709 123.931c.084.76.727 1.335 1.491 1.335h23.486c.405 0 .793-.164 1.075-.455.283-.291.436-.683.424-1.088z" fill="#3a312a"/></g></g><g><g><path d="m234.394 41.742h-67.549l-.302 10.591h68.153z" fill="#d6df58"/></g></g><g><g><path d="m235.893 41.699c-.022-.812-.688-1.458-1.499-1.458h-67.549c-.812 0-1.477.646-1.499 1.458l-.302 10.592c-.012.405.141.797.424 1.088.282.291.67.455 1.075.455h68.152c.405 0 .793-.164 1.075-.455.283-.291.435-.683.424-1.088zm-67.807 9.134.217-7.592h64.633l.217 7.592z" fill="#3a312a"/></g></g><g><g><path d="m44.788 108.064-12.216 44.824-3.947 14.482-9.273 34.022 13.178 3.591 25.435-93.327z" fill="#8ac3da"/></g></g><g><g><path d="m58.36 110.208-13.177-3.592c-.385-.105-.794-.053-1.139.145-.346.197-.599.524-.703.908l-12.217 44.824c-.218.799.254 1.624 1.053 1.842.798.22 1.624-.253 1.842-1.053l11.822-43.377 10.282 2.803-24.646 90.433-10.283-2.802 8.879-32.575c.218-.799-.254-1.624-1.053-1.842-.797-.219-1.624.253-1.842 1.053l-9.273 34.022c-.104.384-.053.793.146 1.139.197.345.523.598.907.703l13.178 3.591c.132.036.265.053.396.053.66 0 1.265-.439 1.446-1.106l25.436-93.327c.216-.799-.255-1.624-1.054-1.842z" fill="#3a312a"/></g></g><g><g><path d="m19.873 200.994h9.609v13.658h-9.609z" fill="#d3d650" transform="matrix(.263 -.965 .965 .263 -182.32 176.983)"/></g></g><g><g><path d="m32.924 203.536-13.177-3.591c-.798-.219-1.624.253-1.842 1.053l-2.527 9.271c-.104.384-.053.793.144 1.139.198.345.524.598.908.703l13.178 3.591c.13.035.263.053.395.053.259 0 .516-.067.744-.198.346-.197.599-.524.703-.908l2.526-9.271c.219-.8-.253-1.625-1.052-1.842zm-3.973 8.876-10.283-2.802 1.738-6.376 10.282 2.802z" fill="#3a312a"/></g></g><g><g><path d="m124.398 108.158h13.658v96.731h-13.658z" fill="#8ac3da" transform="matrix(.965 -.263 .263 .965 -36.541 40.016)"/></g></g><g><g><path d="m151.981 200.997-25.435-93.327c-.218-.799-1.045-1.272-1.842-1.053l-13.178 3.591c-.384.104-.71.357-.907.703-.198.346-.25.755-.146 1.139l25.436 93.327c.182.667.786 1.106 1.446 1.106.131 0 .264-.017.396-.053l13.178-3.591c.384-.104.71-.357.907-.703.198-.345.249-.755.145-1.139zm-13.572 2.144-24.646-90.433 10.283-2.802 24.646 90.433z" fill="#3a312a"/></g></g><g><g><path d="m138.379 203.018h13.658v9.609h-13.658z" fill="#d3d650" transform="matrix(.965 -.263 .263 .965 -49.536 45.495)"/></g></g><g><g><path d="m154.507 210.268-2.526-9.271c-.104-.384-.357-.71-.703-.908s-.755-.25-1.139-.145l-13.178 3.591c-.799.218-1.271 1.042-1.053 1.842l2.526 9.271c.104.384.358.71.703.908.229.131.485.198.744.198.132 0 .265-.018.394-.053l13.178-3.591c.8-.218 1.272-1.043 1.054-1.842zm-13.572 2.144-1.737-6.376 10.283-2.802 1.737 6.376z" fill="#3a312a"/></g></g><g><g><path d="m101.059 95.955h-32.234l-24.037 12.111v96.11h80.308v-96.11z" fill="#f8e4c8"/></g></g><g><g><path d="m125.771 106.727-24.037-12.111c-.209-.105-.441-.161-.675-.161h-32.233c-.234 0-.466.055-.675.161l-24.037 12.111c-.506.255-.825.773-.825 1.339v96.109c0 .829.672 1.5 1.5 1.5h80.308c.828 0 1.5-.671 1.5-1.5v-96.109c-.001-.566-.32-1.084-.826-1.339zm-2.175 95.949h-77.308v-93.686l22.894-11.535h31.52l22.894 11.535z" fill="#3a312a"/></g></g><g><g><path d="m44.79 204.178h80.308v10.08h-80.308z" fill="#d3d650"/></g></g><g><g><path d="m125.098 202.678h-80.308c-.828 0-1.5.671-1.5 1.5v10.08c0 .829.672 1.5 1.5 1.5h80.307c.828 0 1.5-.671 1.5-1.5v-10.08c.001-.828-.671-1.5-1.499-1.5zm-1.5 10.08h-77.308v-7.08h77.307v7.08z" fill="#3a312a"/></g></g><g><g><path d="m84.925 109.351c-.828 0-1.5.671-1.5 1.5v103.406c0 .829.672 1.5 1.5 1.5s1.5-.671 1.5-1.5v-103.406c0-.829-.672-1.5-1.5-1.5z" fill="#3a312a"/></g></g><g><g><path d="m68.773 95.955s7.228 22.346 16.145 22.346c8.916 0 16.144-22.346 16.144-22.346z" fill="#d3d650"/></g></g><g><g><path d="m102.275 95.073c-.282-.388-.733-.618-1.213-.618h-32.289c-.479 0-.931.229-1.213.618-.282.388-.362.888-.214 1.344.773 2.394 7.845 23.385 17.571 23.385s16.798-20.992 17.571-23.385c.149-.457.069-.957-.213-1.344zm-17.358 21.729c-5.26 0-11.084-11.152-14.044-19.347h28.079c-2.425 6.593-8.292 19.347-14.035 19.347z" fill="#3a312a"/></g></g><g><g><path d="m84.917 73.609c-8.916 0-16.145 7.228-16.145 16.144v6.202h32.289v-6.202c.001-8.916-7.227-16.144-16.144-16.144z" fill="#d3d650"/></g></g><g><g><path d="m84.917 72.109c-9.729 0-17.645 7.915-17.645 17.644v6.202c0 .829.672 1.5 1.5 1.5h32.289c.828 0 1.5-.671 1.5-1.5v-6.202c.001-9.729-7.914-17.644-17.644-17.644zm14.645 22.346h-29.289v-4.702c0-8.075 6.569-14.644 14.645-14.644s14.645 6.569 14.645 14.644v4.702z" fill="#3a312a"/></g></g><g><g><path d="m75.476 95.955s4.227 14.924 9.442 14.924c5.214 0 9.442-14.924 9.442-14.924z" fill="#87796f"/></g></g><g><g><path d="m95.555 95.05c-.283-.375-.727-.595-1.196-.595h-18.883c-.47 0-.913.22-1.196.595-.284.375-.375.861-.247 1.313.758 2.674 4.842 16.015 10.885 16.015s10.127-13.341 10.885-16.015c.127-.451.036-.938-.248-1.313zm-10.638 14.329c-2.476 0-5.632-6.55-7.41-11.924h14.82c-1.778 5.374-4.934 11.924-7.41 11.924z" fill="#3a312a"/></g></g><g><g><path d="m84.917 81.032c-5.215 0-9.442 4.227-9.442 9.442v5.482h18.884v-5.482c0-5.215-4.227-9.442-9.442-9.442z" fill="#87796f"/></g></g><g><g><path d="m84.917 79.532c-6.033 0-10.941 4.909-10.941 10.942v5.481c0 .829.672 1.5 1.5 1.5h18.883c.828 0 1.5-.671 1.5-1.5v-5.481c0-6.034-4.908-10.942-10.942-10.942zm7.942 14.923h-15.883v-3.981c0-4.379 3.562-7.942 7.941-7.942s7.941 3.562 7.941 7.942v3.981z" fill="#3a312a"/></g></g><g><g><path d="m44.788 128.748v65.171c9.881-.012 17.894-14.599 17.894-32.586s-8.013-32.573-17.894-32.585z" fill="#d3d650"/></g></g><g><g><path d="m44.79 127.248c-.001 0-.001 0-.002 0-.397 0-.778.158-1.06.438-.282.282-.44.664-.44 1.062v65.171c0 .398.158.78.44 1.062.281.281.662.438 1.06.438h.002c10.874-.014 19.393-14.985 19.393-34.085s-8.519-34.072-19.393-34.086zm1.498 65.033v-61.896c8.216 1.501 14.895 15.067 14.895 30.948 0 15.882-6.679 29.447-14.895 30.948z" fill="#3a312a"/></g></g><g><g><path d="m125.071 128.748c-9.887 0-17.906 14.592-17.906 32.586 0 17.993 8.02 32.586 17.906 32.586h.025v-65.171h-.025z" fill="#d3d650"/></g></g><g><g><path d="m125.072 127.248c-10.883 0-19.407 14.972-19.407 34.086 0 19.113 8.524 34.085 19.432 34.085.828 0 1.5-.671 1.5-1.5v-65.171c-.001-.829-.697-1.5-1.525-1.5zm-1.476 65.04c-8.233-1.467-14.932-15.045-14.932-30.955s6.698-29.488 14.932-30.955z" fill="#3a312a"/></g></g><g><g><path d="m233.236 53.83h-15l4.53 158.93h15z" fill="#6ca8bf"/></g></g><g><g><path d="m232.936 43.24h-15l.22 7.59h15z" fill="#b9c239"/></g></g></g></svg>