<svg height="512pt" viewBox="0 -35 512.00048 512" width="512pt" xmlns="http://www.w3.org/2000/svg"><path d="m452.945312 266.914062v100.675782h18.011719c10.777344 0 19.515625-8.738282 19.515625-19.519532v-81.15625zm0 0" fill="#1ee5ed"/><path d="m484.496094 233.710938h-31.550782v38.273437h41.796876c5.390624 0 9.757812-4.367187 9.757812-9.757813v-8.511718c0-11.046875-8.953125-20.003906-20.003906-20.003906zm0 0" fill="#df9563"/><path d="m227.536829 301.640739v100.674995h-18.011578c-10.777259 0-19.515472-8.738213-19.515472-19.519379v-81.155616zm0 0" style="fill:#1ee5ed;stroke-width:15;stroke-linecap:round;stroke-linejoin:round;stroke:#000;stroke-miterlimit:10" transform="matrix(1.00001 0 0 1.00001 0 -34.729)"/><path d="m195.982388 268.437873h31.554441v38.273139h-41.796548c-5.390583 0-9.757737-4.367154-9.757737-9.757736v-8.511653c0-11.046788 8.953056-20.00375 19.999844-20.00375zm0 0" style="fill:#df9563;stroke-width:15;stroke-linecap:round;stroke-linejoin:round;stroke:#000;stroke-miterlimit:10" transform="matrix(1.00001 0 0 1.00001 0 -34.729)"/><path d="m300.507812 127.527344h-66.945312v-103.289063c0-9.242187 7.492188-16.738281 16.738281-16.738281h33.46875c9.246094 0 16.738281 7.496094 16.738281 16.738281zm0 0" fill="#628fb1"/><path d="m446.921875 127.527344h-66.949219v-103.289063c0-9.242187 7.496094-16.738281 16.742188-16.738281h33.46875c9.242187 0 16.738281 7.496094 16.738281 16.738281zm0 0" fill="#628fb1"/><path d="m459.648438 154.96875v236.105469c0 5.386719-4.367188 9.75-9.757813 9.75h-219.292969c-5.390625 0-9.757812-4.363281-9.757812-9.75v-236.105469c0-6.808594.808594-13.429688 2.339844-19.769531 8.886718-36.898438 42.109374-64.320313 81.738281-64.320313h70.640625c46.441406 0 84.089844 37.652344 84.089844 84.089844zm0 0" fill="#2081f6"/><path d="m295.078125 400.824219h-64.480469c-5.390625 0-9.757812-4.363281-9.757812-9.75v-236.105469c0-6.808594.808594-13.429688 2.339844-19.769531h5.4375c12 0 21.761718 9.761719 21.761718 21.761719v27.519531c11.507813 12.609375 19.167969 28.378906 21.839844 45.390625l24.128906 153.429687c.929688 5.941407.472656 11.921875-1.269531 17.523438zm0 0" fill="#1e6be7"/><path d="m459.648438 154.964844v236.109375c0 5.386719-4.375 9.757812-9.757813 9.757812h-21.65625c5.386719 0 9.757813-4.375 9.757813-9.757812v-236.109375c0-46.429688-37.648438-84.078125-84.089844-84.078125h21.65625c46.441406 0 84.089844 37.648437 84.089844 84.078125zm0 0" fill="#1e6be7"/><path d="m265.097656 270h150.28125v84.902344h-150.28125zm0 0" fill="#1ee5ed"/><path d="m291.878906 354.902344h-26.78125v-84.902344h13.429688zm0 0" fill="#1abfc7"/><path d="m424.167969 261.710938v8.511718c0 5.390625-4.367188 9.757813-9.757813 9.757813h-148.332031c-5.390625 0-9.757813-4.367188-9.757813-9.757813v-8.511718c0-10.300782 7.777344-18.78125 17.777344-19.890626.730469-.078124 1.472656-.121093 2.222656-.121093h127.839844c11.050782 0 20.007813 8.960937 20.007813 20.011719zm0 0" fill="#df9563"/><path d="m280.097656 279.980469h-14.019531c-5.390625 0-9.757813-4.367188-9.757813-9.757813v-8.511718c0-10.300782 7.777344-18.78125 17.777344-19.890626zm0 0" fill="#c87c5b"/><path d="m368.535156 164.085938-17.941406 17.941406c-5.71875 5.714844-14.984375 5.714844-20.703125 0l-17.941406-17.941406c-5.714844-5.71875-5.714844-14.984376 0-20.703126l17.941406-17.941406c5.714844-5.714844 14.984375-5.714844 20.703125 0l17.941406 17.941406c5.714844 5.714844 5.714844 14.984376 0 20.703126zm0 0" fill="#df9563"/><path d="m257.902344 416.261719h-223.480469c-16.535156 0-29.160156-14.765625-26.59375-31.097657l24.125-153.425781c5.769531-36.691406 37.386719-63.722656 74.527344-63.722656h79.359375c37.140625 0 68.757812 27.03125 74.527344 63.722656l24.125 153.425781c2.566406 16.332032-10.058594 31.097657-26.589844 31.097657zm0 0" fill="#ff4b87"/><path d="m44.875 361.800781h78.070312v73.242188h-78.070312zm0 0" fill="#ff71a7"/><path d="m102.257812 373.945312h-36.695312c-15.273438 0-27.65625-12.382812-27.65625-27.660156v-11.40625c0-5.390625 4.367188-9.757812 9.757812-9.757812h72.492188c5.390625 0 9.757812 4.367187 9.757812 9.757812v11.40625c.003907 15.277344-12.378906 27.660156-27.65625 27.660156zm0 0" fill="#ffa4cd"/><path d="m169.375 361.800781h78.070312v73.242188h-78.070312zm0 0" fill="#ff71a7"/><path d="m226.757812 373.945312h-36.695312c-15.277344 0-27.660156-12.382812-27.660156-27.660156v-11.40625c0-5.390625 4.371094-9.757812 9.757812-9.757812h72.496094c5.390625 0 9.757812 4.367187 9.757812 9.757812v11.40625c0 15.277344-12.382812 27.660156-27.65625 27.660156zm0 0" fill="#ffa4cd"/><path d="m174.660156 279.84375h-56.996094c-35.191406 0-63.722656-28.527344-63.722656-63.71875v-59.164062c0-5.386719 4.371094-9.757813 9.757813-9.757813h164.921875c5.386718 0 9.757812 4.371094 9.757812 9.757813v59.164062c0 35.191406-28.527344 63.71875-63.71875 63.71875zm0 0" fill="#ffa4cd"/><path d="m153.941406 306.355469h-15.5625c-5.636718 0-10.203125-4.566407-10.203125-10.203125v-71.789063h35.972657v71.789063c0 5.636718-4.570313 10.203125-10.207032 10.203125zm0 0" fill="#ffbd47"/><path d="m484.496094 226.210938h-17.347656v-20.28125c0-4.140626-3.355469-7.5-7.5-7.5-4.144532 0-7.5 3.359374-7.5 7.5v185.140624c0 1.242188-1.011719 2.257813-2.257813 2.257813h-87.804687c-4.140626 0-7.5 3.355469-7.5 7.5s3.359374 7.5 7.5 7.5h87.804687c9.515625 0 17.257813-7.742187 17.257813-17.257813v-15.980468h3.808593c14.894531 0 27.015625-12.121094 27.015625-27.019532v-68.898437c7.976563-1.519531 14.027344-8.535156 14.027344-16.945313v-8.511718c0-15.164063-12.335938-27.503906-27.503906-27.503906zm0 15c6.894531 0 12.503906 5.609374 12.503906 12.503906v8.511718c0 1.246094-1.011719 2.257813-2.257812 2.257813h-27.59375v-23.273437zm-13.539063 118.878906h-3.808593v-80.605469h15.824218v68.585937c0 6.625-5.390625 12.019532-12.015625 12.019532zm0 0"/><path d="m327.910156 393.328125h-35.820312c.355468-3.070313.300781-6.207031-.1875-9.328125l-3.398438-21.597656h126.878906c4.140626 0 7.5-3.355469 7.5-7.5v-69.667969c5.234376-2.96875 8.78125-8.582031 8.78125-15.015625v-8.511719c0-15.164062-12.339843-27.503906-27.503906-27.503906h-127.839844c-2.664062 0-5.285156.390625-7.796874 1.132813l-.746094-4.761719c-2.636719-16.761719-10.210938-32.082031-21.898438-44.335938v-29.277343c0-9.105469-7.09375-16.566407-16.042968-17.195313 7.078124-35.464844 38.160156-61.382813 75.085937-61.382813h70.640625c42.230469 0 76.585938 34.355469 76.585938 76.585938v16.785156c0 4.140625 3.359374 7.5 7.5 7.5 4.144531 0 7.5-3.359375 7.5-7.5v-16.785156c0-17.007812-4.664063-32.941406-12.777344-46.605469.03125-.273437.050781-.550781.050781-.832031v-83.292969c0-13.363281-10.875-24.238281-24.238281-24.238281h-33.46875c-13.367188 0-24.238282 10.875-24.238282 24.238281v39.144531h-13.511718v-17.335937c0-10.324219-8.398438-18.722656-18.722656-18.722656-10.324219 0-18.722657 8.398437-18.722657 18.722656v17.335937h-13.511719v-39.144531c0-13.363281-10.875-24.238281-24.238281-24.238281h-33.46875c-13.367187 0-24.238281 10.875-24.238281 24.238281v83.289063c0 .273437.015625.542968.042969.808594-5.699219 9.617187-9.609375 20.230468-11.480469 31.367187h-41.234375v-16.363281c0-15.015625-12.214844-27.230469-27.230469-27.230469s-27.230468 12.214844-27.230468 27.230469v16.363281h-55.230469c-9.515625 0-17.257813 7.742187-17.257813 17.257813v29.285156c-.054687.054687-.117187.105468-.171875.164062-11.59375 12.226563-19.105469 27.496094-21.726562 44.164063l-3.769531 23.96875c-.640626 4.09375 2.152343 7.933593 6.246093 8.574219.394531.0625.785157.09375 1.171875.09375 3.628906 0 6.820313-2.640626 7.402344-6.335938l3.769531-23.96875c1.179688-7.515625 3.582031-14.679688 7.078125-21.273438v4.492188c0 39.269531 31.949219 71.21875 71.21875 71.21875h3.011719v8.808594c0 9.761718 7.945313 17.707031 17.707031 17.707031h15.5625c9.761719 0 17.703125-7.945313 17.703125-17.707031v-8.808594h3.011719c39.273438 0 71.222656-31.949219 71.222656-71.21875v-4.488281c3.492188 6.589843 5.898438 13.75 7.078125 21.269531l24.125 153.421875c.882813 5.617187-.730469 11.316406-4.425781 15.636719-3.695312 4.320312-9.070312 6.796875-14.757812 6.796875h-2.957032v-41.484375c4.378906-5.859375 6.972656-13.128906 6.972656-20.992188v-11.40625c0-9.515625-7.742187-17.257812-17.257812-17.257812h-72.496094c-9.515625 0-17.257812 7.742187-17.257812 17.257812v11.40625c0 7.863282 2.59375 15.132813 6.972656 20.992188v41.484375h-31.429688v-41.484375c4.375-5.859375 6.972657-13.128906 6.972657-20.992188v-11.40625c0-9.515625-7.742188-17.257812-17.261719-17.257812h-72.492188c-9.515624 0-17.257812 7.742187-17.257812 17.257812v11.40625c0 7.863282 2.59375 15.132813 6.972656 20.992188v41.484375h-2.957031c-5.6875 0-11.0625-2.476563-14.757813-6.796875-3.695312-4.320313-5.308593-10.019532-4.425781-15.636719l15.160157-96.402344c.640624-4.089843-2.152344-7.929687-6.246094-8.574219-4.09375-.632812-7.929688 2.152344-8.574219 6.246094l-15.160156 96.402344c-1.5625 9.953125 1.292969 20.054688 7.84375 27.710938 6.550781 7.660156 16.082031 12.050781 26.160156 12.050781h2.957031v11.28125c0 4.140625 3.355469 7.5 7.5 7.5h78.066406c4.140626 0 7.5-3.359375 7.5-7.5v-11.28125h31.429688v11.28125c0 4.140625 3.359375 7.5 7.5 7.5h78.070312c4.140626 0 7.5-3.359375 7.5-7.5v-11.28125h2.957032c10.074218 0 19.605468-4.390625 26.15625-12.046875.921875-1.082032 1.765625-2.214844 2.542968-3.386719h41.308594c4.144532 0 7.5-3.359375 7.5-7.5 0-4.144531-3.355468-7.5-7.5-7.5zm68.804688-378.328125h33.46875c5.09375 0 9.238281 4.144531 9.238281 9.238281v65.148438c-13.824219-13.464844-31.871094-22.609375-51.945313-25.230469v-39.917969c0-5.09375 4.144532-9.238281 9.238282-9.238281zm-60.195313 31.046875c0-2.054687 1.671875-3.722656 3.722657-3.722656 2.054687 0 3.722656 1.667969 3.722656 3.722656v17.335937h-7.445313zm-86.21875-31.046875h33.46875c5.09375 0 9.238281 4.144531 9.238281 9.238281v39.933594c-18.421874 2.40625-35.71875 10.34375-49.628906 22.96875-.789062.71875-1.554687 1.460937-2.316406 2.203125v-65.105469c0-5.09375 4.144531-9.238281 9.238281-9.238281zm-116.371093 108.339844c0-6.742188 5.488281-12.230469 12.230468-12.230469 6.742188 0 12.230469 5.488281 12.230469 12.230469v16.363281h-24.460937zm22.71875 172.8125c0 1.488281-1.214844 2.703125-2.707032 2.703125h-15.5625c-1.492187 0-2.703125-1.214844-2.703125-2.703125v-64.289063h20.972657zm74.230468-80.027344c0 31-25.222656 56.21875-56.21875 56.21875h-3.011718v-47.980469c0-4.144531-3.359376-7.5-7.5-7.5h-35.972657c-4.144531 0-7.5 3.355469-7.5 7.5v47.980469h-3.011719c-31 0-56.222656-25.21875-56.222656-56.21875v-59.164062c0-1.242188 1.015625-2.257813 2.257813-2.257813h164.921875c1.242187 0 2.257812 1.015625 2.257812 2.257813zm-185.472656 118.753906c0-1.246094 1.011719-2.257812 2.257812-2.257812h72.496094c1.246094 0 2.257813 1.011718 2.257813 2.257812v11.40625c0 11.117188-9.042969 20.160156-20.160157 20.160156h-36.695312c-11.113281 0-20.15625-9.042968-20.15625-20.160156zm6.96875 92.664063v-48.671875c4.078125 1.652344 8.527344 2.574218 13.1875 2.574218h36.695312c4.664063 0 9.113282-.921874 13.1875-2.574218v48.671875zm117.527344-92.664063c0-1.246094 1.015625-2.257812 2.261718-2.257812h72.492188c1.246094 0 2.257812 1.011718 2.257812 2.257812v11.40625c0 11.117188-9.039062 20.160156-20.15625 20.160156h-36.695312c-11.117188 0-20.160156-9.042968-20.160156-20.160156zm6.972656 92.664063v-48.671875c4.074219 1.652344 8.523438 2.574218 13.1875 2.574218h36.695312c4.664063 0 9.113282-.921874 13.1875-2.574218v48.671875zm109.273438-80.140625-9.425782-59.925782h131.160156v59.925782zm-9.828126-98.199219h127.839844c6.898438 0 12.503906 5.609375 12.503906 12.503906v8.511719c0 1.246094-1.011718 2.257812-2.257812 2.257812h-140.039062l-3.464844-22.039062c1.675781-.808594 3.519531-1.234375 5.417968-1.234375zm0 0"/><path d="m340.242188 193.8125c5.914062 0 11.472656-2.304688 15.652343-6.484375l17.941407-17.9375v-.003906c8.628906-8.628907 8.628906-22.675781 0-31.304688l-17.941407-17.941406c-4.179687-4.179687-9.738281-6.484375-15.652343-6.484375-5.914063 0-11.472657 2.304688-15.652344 6.484375l-17.941406 17.941406c-8.632813 8.628907-8.632813 22.675781 0 31.308594l17.941406 17.9375c4.179687 4.179687 9.738281 6.484375 15.652344 6.484375zm-22.988282-45.125 17.941406-17.941406c1.347657-1.347656 3.140626-2.089844 5.046876-2.089844s3.699218.742188 5.046874 2.089844l17.941407 17.941406c2.78125 2.78125 2.78125 7.3125 0 10.09375l-17.941407 17.941406c-1.347656 1.347656-3.140624 2.089844-5.046874 2.089844s-3.699219-.742188-5.046876-2.089844l-17.941406-17.941406c-2.78125-2.78125-2.78125-7.3125 0-10.09375zm0 0"/><path d="m306.664062 180.773438c-4.109374 0-7.460937 3.3125-7.5 7.433593v.105469c-.039062 4.140625 3.289063 7.53125 7.433594 7.566406h.066406c4.109376 0 7.460938-3.3125 7.5-7.429687v-.105469c.039063-4.144531-3.289062-7.53125-7.429687-7.570312-.023437 0-.046875 0-.070313 0zm0 0"/><path d="m373.75 195.882812h.070312c4.109376 0 7.460938-3.3125 7.5-7.433593v-.105469c.039063-4.140625-3.289062-7.53125-7.433593-7.566406-.023438 0-.046875 0-.066407 0-4.113281 0-7.464843 3.3125-7.5 7.429687l-.003906.105469c-.035156 4.140625 3.289063 7.53125 7.433594 7.570312zm0 0"/></svg>