<svg height="512pt" viewBox="0 -136 512 512" width="512pt" xmlns="http://www.w3.org/2000/svg"><path d="m416 50v-20h-42v20s-156.003906 0-178 0c-11.050781 0-20 8.949219-20 20v100c0 11.050781 8.949219 20 20 20h178v20h42v-20h86v-140zm0 0" fill="#995f47"/><path d="m176 170v-30h40c11.039062 0 20-8.960938 20-20 0-11.050781-8.949219-20-20-20h-40v-30c0-11.050781 8.949219-20 20-20h100c0-22.089844-17.910156-40-40-40h-80c-33.132812 0-60 26.839844-60 60v100c0 33.136719 26.847656 60 60 60h80c22.089844 0 40-17.910156 40-40h-100c-11.050781 0-20-8.949219-20-20zm0 0" fill="#ffd765"/><path d="m10 50h109.410156c-2.210937 6.261719-3.410156 12.988281-3.410156 20v100c0 7.011719 1.199219 13.738281 3.410156 20h-109.410156zm0 0" fill="#995f47"/><path d="m416 110c-5.519531 0-10 4.480469-10 10s4.480469 10 10 10 10-4.480469 10-10-4.480469-10-10-10zm0 0"/><path d="m296 100c5.519531 0 10-4.480469 10-10s-4.480469-10-10-10-10 4.480469-10 10 4.480469 10 10 10zm0 0"/><path d="m296 140c-5.519531 0-10 4.480469-10 10s4.480469 10 10 10 10-4.480469 10-10-4.480469-10-10-10zm0 0"/><path d="m50 80c-5.519531 0-10 4.480469-10 10s4.480469 10 10 10 10-4.480469 10-10-4.480469-10-10-10zm0 0"/><path d="m50 140c-5.519531 0-10 4.480469-10 10s4.480469 10 10 10 10-4.480469 10-10-4.480469-10-10-10zm0 0"/><path d="m502 40h-76v-10c0-5.523438-4.476562-10-10-10h-42c-5.523438 0-10 4.476562-10 10v10h-59.007812c-4.644532-22.796875-24.84375-40-48.992188-40h-80c-27.191406 0-51.769531 15.8125-63.253906 40h-102.746094c-5.523438 0-10 4.476562-10 10v140c0 5.523438 4.476562 10 10 10h102.746094c11.484375 24.1875 36.0625 40 63.253906 40h80c24.144531 0 44.347656-17.203125 48.992188-40h59.007812v10c0 5.523438 4.476562 10 10 10h42c5.523438 0 10-4.476562 10-10v-10h76c5.523438 0 10-4.476562 10-10v-140c0-5.523438-4.476562-10-10-10zm-482 19.988281h86.722656c-.472656 3.296875-.722656 6.636719-.722656 10v100.011719c0 3.367188.253906 6.703125.722656 10h-86.722656zm236 160.011719h-80c-27.277344 0-50-22.066406-50-50v-100c0-27.9375 22.726562-50 50-50h80c13.039062 0 24.160156 8.359375 28.285156 20h-88.285156c-16.542969 0-30 13.457031-30 30v21.703125c-11.390625 4.019531-20 14.96875-20 28.296875 0 13.035156 8.359375 24.152344 20 28.28125v21.71875c0 16.542969 13.457031 29.988281 30 29.988281h88.285156c-4.125 11.644531-15.246094 20.011719-28.285156 20.011719zm-80-90c-5.515625 0-10-4.484375-10-10 0-5.519531 4.476562-10 10-10h40c5.515625 0 10 4.484375 10 10 0 5.519531-4.476562 10-10 10zm20 50c-5.515625 0-10-4.484375-10-10v-20h30c16.574219 0 30-13.425781 30-30 0-16.542969-13.457031-30-30-30h-30v-20c0-5.515625 4.484375-10 10-10h168v120c-7.539062 0-160.425781 0-168 0zm296 0h-66v-20c0-5.523438-4.476562-10-10-10s-10 4.476562-10 10v40h-22v-160h22v40c0 5.523438 4.476562 10 10 10s10-4.476562 10-10v-20h66zm0 0"/></svg>