<svg id="Layer_1" enable-background="new 0 0 256 256" height="512" viewBox="0 0 256 256" width="512" xmlns="http://www.w3.org/2000/svg"><g><g><g><path d="m47.621 26.33c-.974 11.564-13.031 13.39-13.031 13.39 10.352.487 12.932 14.059 12.932 14.059.221-9.677 13.328-14.202 13.328-14.202-9.819-.588-13.229-13.247-13.229-13.247z" fill="#d6df58"/></g></g><g><g><path d="m60.94 38.079c-8.61-.515-11.839-12.024-11.871-12.141-.191-.703-.859-1.164-1.583-1.102-.725.066-1.298.642-1.359 1.367-.86 10.215-11.32 11.963-11.761 12.031-.762.116-1.313.791-1.273 1.561.04.771.657 1.385 1.428 1.421 9.033.426 11.505 12.72 11.529 12.844.137.711.759 1.217 1.472 1.217.042 0 .084-.002.126-.005.764-.064 1.357-.693 1.374-1.46.195-8.508 12.198-12.776 12.319-12.819.676-.234 1.092-.914.995-1.622-.098-.709-.682-1.25-1.396-1.292zm-13.573 10.347c-1.358-3.131-3.711-6.908-7.591-8.878 2.933-1.405 6.413-3.913 8.206-8.273 1.551 3.07 4.202 6.881 8.338 8.724-3.008 1.639-6.926 4.405-8.953 8.427z" fill="#3a312a"/></g></g><g><g><path d="m25.911 43.31c-.689 8.179-9.217 9.471-9.217 9.471 7.322.344 9.147 9.944 9.147 9.944.156-6.845 9.427-10.046 9.427-10.046-6.944-.415-9.357-9.369-9.357-9.369z" fill="#d6df58"/></g></g><g><g><path d="m35.358 51.183c-5.769-.345-7.977-8.186-7.998-8.265-.191-.702-.853-1.16-1.582-1.102-.726.065-1.299.643-1.36 1.368-.579 6.87-7.651 8.065-7.947 8.112-.762.116-1.313.791-1.273 1.561.04.771.657 1.385 1.428 1.421 6.039.284 7.728 8.645 7.744 8.727.136.713.759 1.22 1.472 1.22.042 0 .083-.002.125-.005.765-.063 1.358-.693 1.376-1.461.13-5.708 8.336-8.633 8.417-8.661.676-.233 1.094-.913.996-1.622-.099-.709-.684-1.251-1.398-1.293zm-9.589 6.796c-.925-1.886-2.341-3.948-4.45-5.281 1.857-1.041 3.699-2.63 4.873-4.917 1.058 1.874 2.656 3.955 4.944 5.225-1.851 1.099-3.991 2.739-5.367 4.973z" fill="#3a312a"/></g></g><g><g><path d="m25.911 16.652c-.689 8.179-9.217 9.471-9.217 9.471 7.322.344 9.147 9.944 9.147 9.944.156-6.845 9.427-10.045 9.427-10.045-6.944-.415-9.357-9.37-9.357-9.37z" fill="#d6df58"/></g></g><g><g><path d="m35.358 24.525c-5.77-.346-7.978-8.187-7.999-8.266-.191-.702-.853-1.158-1.582-1.102-.726.065-1.299.643-1.36 1.368-.579 6.871-7.651 8.066-7.947 8.113-.762.116-1.313.791-1.273 1.561.04.771.657 1.385 1.428 1.421 6.039.284 7.728 8.645 7.744 8.727.136.713.759 1.22 1.472 1.22.042 0 .083-.002.125-.005.765-.063 1.358-.693 1.376-1.461.13-5.709 8.336-8.633 8.417-8.661.677-.233 1.094-.913.997-1.622-.099-.709-.684-1.25-1.398-1.293zm-9.59 6.796c-.924-1.887-2.341-3.948-4.45-5.281 1.857-1.041 3.7-2.631 4.874-4.918 1.058 1.874 2.656 3.955 4.944 5.226-1.851 1.1-3.991 2.74-5.368 4.973z" fill="#3a312a"/></g></g><g><g><path d="m69.933 16.5h124.5v29h-124.5z" fill="#ef6d7a"/></g></g><g><g><path d="m194.433 15h-124.5c-.829 0-1.5.672-1.5 1.5v29c0 .828.671 1.5 1.5 1.5h124.5c.829 0 1.5-.672 1.5-1.5v-29c0-.828-.671-1.5-1.5-1.5zm-1.5 29h-121.5v-26h121.5z" fill="#3a312a"/></g></g><g><g><path d="m69.933 24.5h124.5v13h-124.5z" fill="#d6df58"/></g></g><g><g><path d="m194.433 23h-102.786c-.829 0-1.5.672-1.5 1.5s.671 1.5 1.5 1.5h101.287v10h-121.5v-10h5.726c.829 0 1.5-.672 1.5-1.5s-.671-1.5-1.5-1.5h-7.226c-.829 0-1.5.672-1.5 1.5v13c0 .828.671 1.5 1.5 1.5h124.5c.829 0 1.5-.672 1.5-1.5v-13c-.001-.828-.672-1.5-1.501-1.5z" fill="#3a312a"/></g></g><g><g><path d="m204.253 84.03-9.82-38.53h-124.5l-9.77 38.36-9.213 36.152-3.714 14.573-22.303 87.525.92.29c69.75 22.23 143.89 22.13 213.58-.29z" fill="#ef6d7a"/></g></g><g><g><path d="m240.887 221.74-45-176.61c-.169-.665-.768-1.13-1.454-1.13h-124.5c-.686 0-1.284.465-1.454 1.13l-18.982 74.512c-.205.803.28 1.619 1.083 1.823.804.207 1.619-.28 1.824-1.083l18.695-73.382h122.168l44.363 174.111c-68.993 21.896-141.868 21.898-210.894-.005l21.954-86.151c.205-.803-.28-1.619-1.083-1.823-.805-.211-1.62.279-1.824 1.083l-22.303 87.525c-.197.771.244 1.562 1.004 1.801l.914.287c34.947 11.139 70.871 16.706 106.8 16.706 36.238-.001 72.479-5.667 107.695-16.996.754-.242 1.19-1.03.994-1.798z" fill="#3a312a"/></g></g><g><g><path d="m132.183 44c-.829 0-1.5.672-1.5 1.5v193.5c0 .828.671 1.5 1.5 1.5s1.5-.672 1.5-1.5v-193.5c0-.828-.671-1.5-1.5-1.5z" fill="#3a312a"/></g></g><g><g><circle cx="132.183" cy="67.257" fill="#87796f" r="6.257"/></g></g><g><g><path d="m132.183 59.5c-4.277 0-7.757 3.479-7.757 7.757s3.48 7.758 7.757 7.758 7.757-3.48 7.757-7.758-3.479-7.757-7.757-7.757zm0 12.515c-2.623 0-4.757-2.135-4.757-4.758s2.134-4.757 4.757-4.757 4.757 2.134 4.757 4.757-2.134 4.758-4.757 4.758z" fill="#3a312a"/></g></g><g><g><circle cx="132.183" cy="97.257" fill="#87796f" r="6.257"/></g></g><g><g><path d="m132.183 89.5c-4.277 0-7.757 3.479-7.757 7.757s3.48 7.758 7.757 7.758 7.757-3.48 7.757-7.758-3.479-7.757-7.757-7.757zm0 12.515c-2.623 0-4.757-2.135-4.757-4.758s2.134-4.757 4.757-4.757 4.757 2.134 4.757 4.757-2.134 4.758-4.757 4.758z" fill="#3a312a"/></g></g><g><g><circle cx="132.183" cy="127.257" fill="#87796f" r="6.257"/></g></g><g><g><path d="m132.183 119.5c-4.277 0-7.757 3.479-7.757 7.757s3.48 7.758 7.757 7.758 7.757-3.48 7.757-7.758-3.479-7.757-7.757-7.757zm0 12.515c-2.623 0-4.757-2.135-4.757-4.758s2.134-4.757 4.757-4.757 4.757 2.134 4.757 4.757-2.134 4.758-4.757 4.758z" fill="#3a312a"/></g></g><g><g><circle cx="132.183" cy="157.257" fill="#87796f" r="6.257"/></g></g><g><g><path d="m132.183 149.5c-4.277 0-7.757 3.479-7.757 7.757s3.48 7.758 7.757 7.758 7.757-3.48 7.757-7.758-3.479-7.757-7.757-7.757zm0 12.515c-2.623 0-4.757-2.135-4.757-4.758s2.134-4.757 4.757-4.757 4.757 2.134 4.757 4.757-2.134 4.758-4.757 4.758z" fill="#3a312a"/></g></g><g><g><circle cx="132.183" cy="187.257" fill="#87796f" r="6.257"/></g></g><g><g><path d="m132.183 179.5c-4.277 0-7.757 3.479-7.757 7.757s3.48 7.758 7.757 7.758 7.757-3.48 7.757-7.758-3.479-7.757-7.757-7.757zm0 12.515c-2.623 0-4.757-2.135-4.757-4.758s2.134-4.757 4.757-4.757 4.757 2.134 4.757 4.757-2.134 4.758-4.757 4.758z" fill="#3a312a"/></g></g><g><g><circle cx="132.183" cy="217.257" fill="#87796f" r="6.257"/></g></g><g><g><path d="m132.183 209.5c-4.277 0-7.757 3.479-7.757 7.757s3.48 7.758 7.757 7.758 7.757-3.48 7.757-7.758-3.479-7.757-7.757-7.757zm0 12.515c-2.623 0-4.757-2.135-4.757-4.758s2.134-4.757 4.757-4.757 4.757 2.134 4.757 4.757-2.134 4.758-4.757 4.758z" fill="#3a312a"/></g></g><g><g><path d="m97.558 16.5h9.25v29h-9.25z" fill="#ef6d7a"/></g></g><g><g><path d="m106.808 15h-9.25c-.829 0-1.5.672-1.5 1.5v29c0 .828.671 1.5 1.5 1.5h9.25c.829 0 1.5-.672 1.5-1.5v-29c0-.828-.671-1.5-1.5-1.5zm-1.5 29h-6.25v-26h6.25z" fill="#3a312a"/></g></g><g><g><path d="m134.248 24.5h6.24c1.659 0 3.005-1.345 3.005-3.005v-1.99c0-1.659-1.345-3.005-3.005-3.005h-16.61c-1.66 0-3.005 1.345-3.005 3.005v22.99c0 1.659 1.345 3.005 3.005 3.005h16.61c1.659 0 3.005-1.345 3.005-3.005v-1.99c0-1.659-1.345-3.005-3.005-3.005h-6.24c-1.66 0-3.005-1.345-3.005-3.005v-6.99c0-1.66 1.346-3.005 3.005-3.005z" fill="#d6df58"/></g></g><g><g><path d="m134.248 26h6.24c2.484 0 4.505-2.021 4.505-4.505v-1.99c0-2.484-2.021-4.505-4.505-4.505h-16.61c-2.484 0-4.505 2.021-4.505 4.505v22.99c0 2.484 2.021 4.505 4.505 4.505h16.61c2.484 0 4.505-2.021 4.505-4.505v-1.99c0-2.484-2.021-4.505-4.505-4.505h-6.24c-.83 0-1.505-.675-1.505-1.505v-6.99c0-.83.676-1.505 1.505-1.505zm0 13h6.24c.83 0 1.505.675 1.505 1.505v1.99c0 .83-.675 1.505-1.505 1.505h-16.61c-.83 0-1.505-.675-1.505-1.505v-22.99c0-.83.675-1.505 1.505-1.505h16.61c.83 0 1.505.675 1.505 1.505v1.99c0 .83-.675 1.505-1.505 1.505h-6.24c-2.484 0-4.505 2.021-4.505 4.505v6.99c0 2.484 2.021 4.505 4.505 4.505z" fill="#3a312a"/></g></g><g><g><path d="m157.558 16.5h9.25v29h-9.25z" fill="#ef6d7a"/></g></g><g><g><path d="m166.808 15h-9.25c-.829 0-1.5.672-1.5 1.5v29c0 .828.671 1.5 1.5 1.5h9.25c.829 0 1.5-.672 1.5-1.5v-29c0-.828-.671-1.5-1.5-1.5zm-1.5 29h-6.25v-26h6.25z" fill="#3a312a"/></g></g><g><g><path d="m99.143 45.5h-29.21l-9.77 38.36c2.1.42 4.29.64 6.52.64 18.23 0 33-14.77 33-33 0-2.05-.19-4.06-.54-6z" fill="#ef6d7a"/></g></g><g><g><path d="m100.619 45.233c-.129-.713-.75-1.233-1.476-1.233h-29.21c-.686 0-1.284.465-1.454 1.13l-9.77 38.36c-.102.398-.035.821.185 1.17.219.348.572.591.975.671 2.22.444 4.512.669 6.814.669 19.023 0 34.5-15.477 34.5-34.5 0-2.085-.19-4.193-.564-6.267zm-33.936 37.767c-1.569 0-3.133-.114-4.667-.34l9.083-35.66h26.766c.211 1.496.318 3.005.318 4.5 0 17.369-14.131 31.5-31.5 31.5z" fill="#3a312a"/></g></g><g><g><path d="m194.433 45.5h-28.21c-.35 1.94-.54 3.95-.54 6 0 18.23 14.77 33 33 33 1.9 0 3.76-.16 5.57-.47z" fill="#ef6d7a"/></g></g><g><g><path d="m205.707 83.66-9.82-38.53c-.169-.665-.768-1.13-1.454-1.13h-28.21c-.726 0-1.347.52-1.476 1.233-.374 2.073-.564 4.182-.564 6.267 0 19.023 15.477 34.5 34.5 34.5 1.958 0 3.918-.165 5.823-.491.413-.07.777-.311 1.005-.661.228-.352.299-.783.196-1.188zm-7.024-.66c-17.369 0-31.5-14.131-31.5-31.5 0-1.495.107-3.004.318-4.5h25.767l9.12 35.784c-1.224.144-2.464.216-3.705.216z" fill="#3a312a"/></g></g><g><g><path d="m177.933 39h15v5h-15z" fill="#d34e5c"/></g></g><g><g><path d="m177.933 18h15v5h-15z" fill="#d34e5c"/></g></g><g><g><path d="m177.933 26h15v10h-15z" fill="#b9c239"/></g></g><g><g><path d="m203.133 85.71c-1.47.19-2.96.29-4.45.29-3.91 0-7.67-.65-11.18-1.87l33.967 132.445c.651 2.54-.799 5.162-3.309 5.923-27.727 8.406-56.049 13.275-84.479 14.622v.4c34.98-.15 69.93-5.61 103.95-16.41z" fill="#d34e5c"/></g></g><g><g><path d="m193.263 47h-15l8.59 33.69c3.66 1.49 7.65 2.31 11.83 2.31 1.24 0 2.48-.07 3.7-.22z" fill="#d34e5c"/></g></g></g></svg>