<svg height="512" viewBox="0 0 52 61" width="512" xmlns="http://www.w3.org/2000/svg"><g id="091---Socks" fill="none" fill-rule="evenodd"><g id="Icons" transform="translate(1)"><path id="Shape" d="m49 36.06c-.0002783 3.6613769-1.7933318 7.0905917-4.8 9.18-.69.48-1.38 1-2.06 1.48-1.72 1.28-3.3866667 2.6133333-5 4l-7.09 6-.18.15c-1.5250684 1.3684277-3.500996 2.1267567-5.55 2.13-.5001068.0034635-.9992914-.0434397-1.49-.14-1.9206945-.3424092-3.6572878-1.3560127-4.9-2.86-.2865768-.3412536-.5441394-.7058552-.77-1.09 3.8225163-3.4313429 7.8284048-6.6527449 12-9.65 3.0276599-2.0845211 4.8371987-5.5241403 4.84-9.2 0-2.15.23-.85-8.61-31.24l11-3.23 1.84-.59c.2612965-.08294767.5451884-.0549846.7852799.07734929.2400915.13233388.415326.35743263.4847201.62265071l2 7 1.17 4 4.77 16.44 1.14 3.86c.2787812.9960966.4200893 2.0256271.42 3.06z" fill="#9e9e9e" fill-rule="nonzero"/><path id="Shape" d="m46 36.06c-.0002783 3.6613769-1.7933318 7.0905917-4.8 9.18-4.88 3.39-8.51 6.68-14.2 11.52-1.1707161 1.0810765-2.6232615 1.8090826-4.19 2.1-2.3743451-.4164055-4.4467593-1.8528408-5.67-3.93 3.8225163-3.4313429 7.8284048-6.6527449 12-9.65 3.041081-2.0840488 4.8592561-5.533344 4.86-9.22 0-2.15.23-.85-8.61-31.24l11-3.23c.07.11-.12-.47 3.26 11.17 6.35 21.68 6.35 21.24 6.35 23.3z" fill="#cfd8dc" fill-rule="nonzero"/><path id="Shape" d="m22.89 9.75v-.01" stroke="#000" stroke-linecap="round" stroke-linejoin="round" stroke-width="2"/><g fill-rule="nonzero"><path id="Shape" d="m28.84 16.68 13.85-3.94-1.16-4.03-13.86 3.94z" fill="#c81e1e"/><path id="Shape" d="m30 56.76-.18.15c-1.6868902 1.4798627-3.8989645 2.2175017-6.1364335 2.0462572-2.237469-.1712444-4.3115266-1.2369222-5.7535665-2.9562572-.2865768-.3412536-.5441394-.7058552-.77-1.09 3-2.6 5.22-4.48 7.36-6.19 2.1215737 2.4456654 3.9506019 5.1304775 5.45 8z" fill="#c81e1e"/><path id="Shape" d="m49 36.06c-.0002783 3.6613769-1.7933318 7.0905917-4.8 9.18-.69.48-1.38 1-2.06 1.48-1.376611-1.7180106-2.2706083-3.771788-2.59-5.95-.56-5.35 3.38-9.44 7.91-11.59l1.12 3.82c.2787812.9960966.4200893 2.0256271.42 3.06z" fill="#c81e1e"/><path id="Shape" d="m34 36.06c-.0002783 3.6613769-1.7933318 7.0905917-4.8 9.18-4.77 3.33-7.6 5.91-14.36 11.67-3.2888557 3.1949673-8.54503272 3.1188557-11.74-.17-3.19496728-3.2888557-3.11885569-8.5450327.17-11.74l10.62-11c.2619438-.2613989.3581156-.6460862.25-1l-7-26.22c-.07048358-.2559398-.03630723-.52940237.09499743-.76012341.13130466-.23072105.34896084-.3997642.60500257-.46987659l15.39-4.55c.2612965-.08294767.5451884-.0549846.7852799.07734929.2400915.13233388.415326.35743263.4847201.62265071 9.74 33.6 9.5 32.14 9.5 34.36z" fill="#cfd8dc"/><path id="Shape" d="m31 36.06c-.0002783 3.6613769-1.7933318 7.0905917-4.8 9.18-4.77 3.33-7.6 5.91-14.36 11.67-1.1246484 1.0209384-2.50846022 1.7128443-4 2-3.02994326-.5089069-5.52802551-2.6555838-6.48699906-5.5744726-.95897355-2.9188889-.22075526-6.128822 1.91699906-8.3355274l10.62-11c.2619438-.2613989.3581156-.6460862.25-1l-7-26.22c-.07048358-.2559398-.03630723-.52940237.09499743-.76012341.13130466-.23072105.34896084-.3997642.60500257-.46987659l13.63-4c.029272.05403531.0527363.11102007.07.17 9.7 33.58 9.46 32.12 9.46 34.34z" fill="#f5f5f5"/><path id="Shape" d="m27.69 12.74-17.65 5.02-.15-.56-.93-3.49 14.77-4.2 2.8-.8z" fill="#c81e1e"/><path id="Shape" d="m24.73 12.98-14.84 4.22-.93-3.49 14.77-4.2z" fill="#f44335"/><path id="Shape" d="m34 36.06c-.0002783 3.6613769-1.7933318 7.0905917-4.8 9.18-.69.48-1.38 1-2.06 1.48-.3610426-.4670967-.6949271-.9545679-1-1.46-.860672-1.3607664-1.4135702-2.8931819-1.62-4.49-.45-4.3 2-7.78 5.34-10.1.8124931-.569228 1.6723106-1.0677214 2.57-1.49l1.15 3.82c.2787812.9960966.4200893 2.0256271.42 3.06z" fill="#c81e1e"/><path id="Shape" d="m31 36.06c-.0002783 3.6613769-1.7933318 7.0905917-4.8 9.18-.860672-1.3607664-1.4135702-2.8931819-1.62-4.49-.45-4.3 2-7.78 5.34-10.1l.66 2.35c.2787812.9960966.4200893 2.0256271.42 3.06z" fill="#f44335"/><path id="Shape" d="m15 56.76-.18.15c-1.6868902 1.4798627-3.8989645 2.2175017-6.13643348 2.0462572-2.23746898-.1712444-4.31152658-1.2369222-5.75356652-2.9562572-2.69234005-3.2224215-2.54621469-7.9500066.34-11l.44-.46c3.60395546 2.053153 6.6976024 4.8938387 9.05 8.31.8523546 1.2363718 1.6015481 2.5407713 2.24 3.9z" fill="#c81e1e"/><path id="Shape" d="m14 55.18-.18.15c-1.6853101 1.488585-3.90030294 2.2335738-6.14264057 2.0660103-2.24233764-.1675634-4.32200673-1.2334798-5.76735943-2.9560103v-.07c-1.57160596-3.0970189-1.02723376-6.8475832 1.36-9.37l.44-.46c3.60395546 2.053153 6.6976024 4.8938387 9.05 8.31.4543323.7507114.8682549 1.5251472 1.24 2.32z" fill="#f44335"/></g></g><path id="Shape" d="m41.46 1.47c-.2964302-1.0623985-1.3969997-1.68426499-2.46-1.39l-11.93 3.48c-.62-2.15-.65-2.8-1.57-3.31-.4585956-.25043637-.9969902-.31145443-1.5-.17l-15.48 4.52c-1.05739477.29654179-1.67788768 1.39021634-1.39 2.45l7 26.23-10.59 11.07c-3.6782163 3.5898509-3.74985068 9.4817835-.15999986 13.1599999 3.58985082 3.6782163 9.48178336 3.7498508 13.15999986.1600001l1.46-1.26c1.5868774 2.0181874 3.933075 3.295962 6.4893429 3.534194 2.5562679.2382321 5.0981756-.5839942 7.0306571-2.274194 6.77-5.83 9.24-8.1 14.28-11.61 4.281227-2.9535634 6.2006477-8.3094312 4.77-13.31-8.17-28.68 8.63 31.19-9.11-31.28zm-30.27 12.93 15.65-4.4.61 2.1-15.69 4.42zm18.72-1.06 11.93-3.34.61 2.1-11.93 3.4zm9.63-11.34 1.74 6-11.93 3.4c-.07-.23-1.8-6.21-1.72-5.94zm-15 0c.88 3-1.09-3.78 1.74 6l-15.61 4.47-1.59-6c16.12-4.67 15.36-4.47 15.46-4.47zm-8.43 30.75-3.83-14.3 15.72-4.45 4.26 14.68c-7.19 3.79-10.2 10.83-5.5 17.86-3.39 2.56-6 4.9-10.44 8.66-2.3352882-4.4125402-5.7823306-8.138793-10-10.81l9.31-9.71c.4822457-.5174433.6636748-1.2469392.48-1.93zm12.28 12.59c-3.87-5.85-1.48-11.34 4.45-14.71l.78 2.68c1.1637207 4.1770952-.4406964 8.6333636-4 11.11-.41.3-.82.58-1.23.92zm-18.62 12.66c-2.78338378-.1893793-5.21289981-1.9548401-6.25268515-4.5436499s-.50642079-5.5443 1.37268515-7.6063501c4.21029185 2.566111 7.6267986 6.2491538 9.87 10.64-1.4212113 1.0995272-3.1976123 1.6370754-4.99 1.51zm9.72-2.87c3.27-2.76 2.49-2.17 5.8-4.87 1.7797622 1.8652155 3.2818256 3.9768607 4.46 6.27-1.5484762 1.1733182-3.4998715 1.6829341-5.424323 1.4165871-1.9244514-.2663471-3.6640819-1.2868068-4.835677-2.8365871zm11.82.08c-1.2038712-2.2591392-2.7037699-4.3475631-4.46-6.21 1.28-1 2.59-2 3.93-2.92 4.258013-2.9665812 6.1687211-8.3053245 4.76-13.3l-4.46-15.41 11.92-3.37 4.26 14.69c-7.16 3.77-10.22 10.8-5.5 17.86-3.94 2.95-5.48 4.45-10.45 8.64zm13.32-10.79c-.42.29-.83.6-1.25.9-3.83-5.8-1.51-11.31 4.46-14.69l.78 2.67c1.1736645 4.1781358-.4277328 8.6411778-3.99 11.12z" fill="#000" fill-rule="nonzero"/></g></svg>